<svg xmlns="http://www.w3.org/2000/svg" width="400" height="400"><path fill="#0B77BD" d="M269.081 81.471c-19.254-11.986-37.414-16.71-55.58-28.698-11.26-7.628-26.878-25.791-39.96-41.411-2.542 25.064-10.168 35.236-18.887 42.501-18.525 14.531-30.15 18.891-46.136 27.608-13.438 6.901-86.453 50.493-86.453 144.213 0 93.721 78.829 162.739 166.37 162.739 87.545 0 163.468-63.571 163.468-159.833 0-96.263-71.197-139.855-82.822-147.119z"/><path fill="#005A8D" d="M342.123 272.935c-75.27 23.385-151.073 45.049-227.348 64.986-12.169 3.179-24.364 6.272-36.557 9.362 30.015 25.889 69.228 41.139 110.37 41.139 77.669 0 146.14-50.062 160.612-128.573-3.424 2.748-5.675 7.673-7.077 13.086z"/><path fill="#fff" d="M380.317 209.295c-2.273-1.156-3.817-4.91-5.849-5.676-1.586-.608-3.386 1.72-5.432.299-3.043-2.108-2.637-8.01-5.358-9.82-1.779-1.178-4.641.841-6.852-.693-2.148-1.499-1.878-4.783-2.079-6.547-.214-1.69-4.137-7.238-1.934-9.479.732-.747 2.637.028 2.995-.961.457-1.255-1.43-4.474-.668-5.55.58-.839 3.605-1.122 2.143-3.58-1.475-2.472-6.411-3.606-7.482-6.262-.478-1.154 5.206-7.289 5.835-9.081.979-2.794 3.9-7.118 4.398-10.084.367-2.169-1.352-4.672-1.112-6.867.449-4.18 4.62-8.248 7.315-11.051 0 0-2.618-5.092-5.083-5.569l-8.31 1.248c-1.111-.228-1.673-1.867-2.805-1.979-.011-.003-3.947 1.265-3.947 1.265-1.752-.552-7.446-7.181-8.277-8.904-1.103-2.226-1.775-12.059-3.225-13.411-.013-.005-3.35-.354-3.373-.367-.006-.003.165-2.913.148-2.924-2.952-2.92-8.619 1.688-10.643.508-2.502-1.48-3.508-7.945-8.214-8.935-2.396-.508-32.394 10.152-37.21 11.639-55.901 17.233-112.102 33.479-168.564 48.728-14.111 3.809-28.249 7.565-42.395 11.247-2.237.584-12.383 4.723-14.157 3.661-.117-.058-2.803-9.595-5.837-20.489-5.302 5.339-13.555 13.793-18.427 16.295-.375.192-1.113.366-2.431 1.874-3.103 3.581-6.93 6.301-10.017 9.777-1.528 1.691-3.915 2.349-5.809 3.474-.831.502-1.693 1.075-2.539 1.595 9.155 36.191 20.796 81.679 27.358 108.217 4.49 18.129 8.976 36.266 13.459 54.391.462 1.817 4.489 18.797 4.686 18.904.195.132 15.006-3.732 16.612-4.128 15.808-3.972 31.615-8.019 47.385-12.138 76.275-19.938 152.079-41.602 227.349-64.986 2.645-10.212 8.272-18.765 19.201-14.022 1.103-1.829 2.456-3.941 2.885-4.417 2.947-3.27 9.122-4.713 11.929-8.107.684-.84-.431-9.671 3.135-8.698l.161.085 1.251-1.491s.862-.772 1.317-1.144c2.034-1.794 1.623-3.938 3.057-6.036 1.462-2.167 11.523-10.383 10.546-12.074-1.716-2.971-11.961-6.1-15.136-7.737"/><path fill="#005A8D" d="M50.648 357.251h-.936l-.668-.441c-1.221-.68-1.329-1.127-5.042-16.536-.508-2.108-.901-3.74-1.027-4.235l-.98-3.96c-4.159-16.814-8.32-33.635-12.484-50.45-4.467-18.061-11.386-45.297-18.077-71.635-3.182-12.523-6.356-25.019-9.278-36.567l-.551-2.18 1.916-1.177c.373-.229.748-.469 1.123-.708.482-.308.963-.614 1.435-.899.764-.454 1.517-.81 2.244-1.153 1.162-.549 2.259-1.068 2.878-1.753 1.59-1.791 3.356-3.383 5.062-4.923 1.767-1.595 3.437-3.102 4.913-4.806 1.395-1.596 2.458-2.199 3.316-2.58 4.216-2.162 11.808-9.818 16.833-14.884l4.558-4.59 1.412 5.069c3.016 10.828 4.453 15.882 5.136 18.228 2.257-.488 5.923-1.773 7.889-2.463 1.482-.52 2.553-.895 3.248-1.077 13.494-3.512 27.749-7.293 42.371-11.24 56.186-15.175 112.863-31.56 168.46-48.698 1.18-.364 4.006-1.326 7.585-2.544 18.021-6.134 27.657-9.248 30.315-9.248.302 0 .579.027.846.084 4.231.89 6.239 4.458 7.705 7.063.34.603.812 1.441 1.168 1.922.46-.117 1.114-.338 1.595-.5 1.549-.521 3.303-1.112 5.146-1.112 2.202 0 3.676.878 4.565 1.687.833.642 1.06 1.316 1.071 2.551.915.099.96.116 1.282.239l.561.213.439.41c1.436 1.339 1.949 3.717 2.858 9.226.291 1.759.729 4.418 1.026 5.074.622 1.218 4.173 5.322 5.977 6.894 3.006-.966 3.059-.966 3.501-.966l.3.015c1.738.171 2.774 1.287 3.395 1.953l.07.078c.612-.041 1.471-.304 2.303-.558 1.272-.389 2.716-.83 4.243-.83.477 0 .943.044 1.387.13 3.541.685 6.229 5.245 7.222 7.174l.999 1.944-2.037 2.117c-2.249 2.326-5.647 5.84-5.956 8.716-.049.448.22 1.336.457 2.121.418 1.382.939 3.103.63 4.93-.377 2.244-1.641 4.693-2.862 7.062-.69 1.339-1.343 2.604-1.665 3.523-.408 1.163-1.404 2.5-3.13 4.762-.607.795-1.491 1.953-2.079 2.816.568.425 1.356.893 1.912 1.223 1.684.999 3.593 2.133 4.685 3.963.996 1.673.911 3.064.666 3.938-.417 1.48-1.471 2.333-2.337 2.859l.12.416c.413 1.407.881 3.001.323 4.531-.671 1.854-2.266 2.367-3.373 2.519.271 1.027.963 2.523 1.308 3.269.582 1.258 1.042 2.252 1.165 3.221.047.408.073.837.099 1.3.059 1.027.156 2.745.695 3.121.069.048.298.054.393.054.348 0 .788-.061 1.256-.126.584-.082 1.247-.173 1.94-.173 1.241 0 2.289.293 3.202.897 2.231 1.484 3.034 4.034 3.741 6.284.424 1.346.899 2.859 1.525 3.454l.592-.217c.71-.272 1.594-.611 2.662-.611.582 0 1.145.103 1.676.307 1.812.682 3.068 2.287 4.178 3.701.643.82 1.442 1.84 1.962 2.104.799.411 2.3 1.007 3.89 1.637 6.298 2.495 10.882 4.479 12.509 7.295 1.837 3.178-1.57 6.441-7.214 11.846-1.304 1.248-3.089 2.957-3.446 3.473-.353.517-.533 1.101-.763 1.84-.415 1.339-.983 3.172-2.805 4.778l-.091.076c-.301.246-.795.683-1.048.908l-2.629 3.133-.541-.256c-.133.963-.189 2.182-.221 2.838-.091 1.967-.147 3.154-.986 4.186-1.847 2.233-4.488 3.627-7.044 4.974-1.925 1.016-3.916 2.066-4.985 3.251-.225.275-1.282 1.867-2.536 3.948l-1.383 2.293-2.456-1.065c-1.669-.725-3.212-1.092-4.588-1.092-5.825 0-8.889 7.109-10.434 13.074l-.427 1.649-1.627.505c-74.892 23.268-151.428 45.146-227.483 65.025-15.498 4.048-31.449 8.134-47.413 12.145-.39.096-1.495.38-2.966.759-13.478 3.458-13.758 3.458-14.371 3.458zm-42.014-183.174c2.769 10.939 5.747 22.662 8.731 34.409 6.694 26.348 13.615 53.592 18.086 71.672 4.164 16.814 8.325 33.637 12.484 50.45l.975 3.94c.123.484.524 2.146 1.041 4.291.739 3.067 2.049 8.501 2.859 11.73 3.088-.759 8.108-2.05 10.683-2.712 1.501-.386 2.629-.676 3.012-.771 15.932-4.002 31.865-8.084 47.343-12.127 75.427-19.716 151.322-41.396 225.618-64.452 3.882-13.17 10.733-16 15.899-16 1.447 0 2.957.229 4.509.683.694-1.094 1.464-2.251 1.909-2.744 1.797-1.994 4.277-3.302 6.676-4.566 1.765-.931 3.581-1.889 4.715-2.962l.057-1.069c.135-2.88.407-8.73 4.725-9.256l.534-.589s.864-.772 1.368-1.188c.485-.443.652-.933.975-1.972.305-.981.683-2.202 1.547-3.467.653-.969 1.982-2.259 4.274-4.454 1.451-1.389 3.86-3.696 5.133-5.194-2.056-1.303-6.378-3.016-8.449-3.836-1.81-.717-3.371-1.336-4.424-1.879-1.712-.87-2.922-2.414-3.989-3.775-.382-.487-.913-1.165-1.295-1.539l-.213.081c-.732.28-1.733.664-2.941.664-1.145 0-2.216-.341-3.185-1.014-2.419-1.676-3.307-4.498-4.021-6.765-.29-.923-.757-2.406-1.158-2.898-.268.006-.645.059-1.044.114-.623.087-1.328.185-2.1.185-1.501 0-2.772-.376-3.888-1.15-2.985-2.083-3.188-5.661-3.31-7.798l-.053-.795c-.097-.294-.417-.988-.655-1.503-1.298-2.805-3.47-7.5-.433-10.588.534-.545 1.142-.857 1.723-1.037-.454-1.593-.86-3.474.289-5.097.312-.453.703-.789 1.092-1.054-.509-.358-1.122-.722-1.633-1.025-1.962-1.165-4.185-2.484-5.14-4.849-.938-2.266.662-4.361 3.565-8.166.803-1.052 2.016-2.642 2.248-3.146.434-1.247 1.182-2.696 1.973-4.23.96-1.86 2.047-3.969 2.267-5.274.069-.413-.22-1.371-.452-2.14-.407-1.344-.868-2.868-.685-4.552.47-4.37 3.713-8.187 6.529-11.154-.718-1.044-1.47-1.909-1.91-2.141-.541-.059-1.616.254-2.603.556-1.274.39-2.719.831-4.251.831-.474 0-.938-.043-1.378-.128-1.3-.266-2.164-1.023-2.734-1.611l-2.502.805-.928.299-.93-.292c-3.002-.945-9.211-8.62-10.114-10.494-.637-1.285-1.009-3.405-1.561-6.754-.248-1.502-.621-3.767-.971-5.129-2.19-.235-2.293-.265-2.771-.534-1.577-.843-1.617-2.317-1.561-3.491-.783.121-1.754.448-2.631.743-1.374.463-2.672.9-3.984.9-.893 0-1.699-.207-2.398-.614-1.694-1.002-2.697-2.785-3.667-4.508-1.202-2.137-2.107-3.6-3.392-4.012-3.128.382-20.614 6.334-28.168 8.905-3.625 1.234-6.488 2.208-7.753 2.599-55.665 17.16-112.414 33.565-168.669 48.758-14.64 3.952-28.913 7.738-42.422 11.254-.451.118-1.576.512-2.767.93-4.686 1.643-8.768 3.003-11.265 3.003-.907 0-1.668-.171-2.319-.523-1.232-.608-1.271-.745-3.346-8.056-.728-2.564-1.625-5.758-2.604-9.261-5.166 5.155-11.257 10.958-15.493 13.134l-.34.16c-.199.088-.5.222-1.185 1.005-1.714 1.979-3.603 3.683-5.43 5.331-1.656 1.495-3.22 2.907-4.604 4.464-1.456 1.611-3.243 2.456-4.82 3.202-.627.296-1.219.576-1.715.871l-.585.366z"/><g fill="#F6B810"><path d="M180.766 150.729l8.111-2.182c3.527-.949 7.297-.997 10.689.829 3.39 1.833 6.321 5.551 8.016 11.86 1.692 6.31 1.004 10.919-1.015 14.205-2.02 3.28-5.267 5.279-8.794 6.227l5.93 22.078-8.109 2.178-14.828-55.195zm14.786 22.672c2.479-.663 3.936-1.539 4.49-3.055.578-1.445.264-3.531-.565-6.612-.829-3.079-1.641-5.195-2.903-6.305-1.265-1.113-3.004-1.286-5.48-.623l4.458 16.595z"/><path d="M217.819 199.953l-6.493-57.436 9.911-2.663 23.167 52.957-7.886 2.116-4.53-10.857-7.809 2.098 1.525 11.667-7.885 2.118zm3.736-40.942l-.61-1.368-.448.123.157 1.488 2.351 18.053 5.562-1.493-7.012-16.803z"/></g><g fill="#005A8D"><path d="M113.011 228.11l-14.83-55.199 6.385-1.716c7.512-2.019 11.971-1.607 15.276 2.014 3.233 3.641 5.39 10.471 8.296 21.284 2.905 10.816 4.44 17.73 3.464 22.498-1.047 4.792-4.695 7.383-12.208 9.399l-6.383 1.72zm5.928-10.296c2.78-.745 4.279-1.467 4.377-4.391.033-1.379-.189-3.414-.818-6.061-.637-2.651-1.583-6.18-2.792-10.685-1.214-4.507-2.159-8.036-2.938-10.644-.764-2.535-1.586-4.405-2.328-5.657-1.535-2.404-3.192-2.284-5.968-1.536l10.467 38.974z"/><path d="M155.458 216.705l-10.46-22.153-2.177.586 6.254 23.282-8.114 2.177-14.829-55.196 8.114-2.18c9.692-2.601 15.29 1.772 18.095 12.209 1.473 5.48 1.379 10.82-1.134 13.753l12.362 25.342-8.111 2.18zm-14.656-29.078c1.127-.301 2.589-.857 3.508-2.228.918-1.376 1.349-3.663.299-7.572-1.05-3.901-2.59-5.742-4.075-6.475-1.481-.728-3.003-.396-4.129-.096l4.397 16.371z"/><path d="M174.815 152.325l11.781 43.856c.528 2.273.624 4.422.264 6.371-.274 1.686-.942 3.391-2.14 4.921-1.182 1.605-3.027 2.828-5.731 3.554-2.702.73-4.986.614-6.812-.184-1.806-.724-3.165-1.887-4.241-3.207-1.292-1.505-2.289-3.41-2.966-5.645l-11.782-43.856 8.11-2.18 11.784 43.858c.421 1.578 1.081 2.526 2.054 3.154.478.275 1.062.354 1.737.173 1.428-.385 1.858-1.465 1.86-2.674.084-.584-.025-1.282-.247-2.108l-11.781-43.854 8.11-2.179z"/><path d="M235.315 136.073l8.111-2.181 12.811 47.689 10.739-2.885 2.017 7.508-18.85 5.063-14.828-55.194z"/><path d="M157.405 273.277l2.832 10.557c.738 3.156.869 6.148.363 8.861-.379 2.342-1.308 4.715-2.977 6.845-1.642 2.233-4.208 3.932-7.967 4.94-3.763 1.011-6.938.856-9.48-.254-2.509-1.006-4.4-2.622-5.901-4.461-1.797-2.09-3.181-4.748-4.125-7.85l-12.153-45.236c-.711-3.062-.843-6.048-.338-8.762.382-2.34 1.175-4.793 2.843-6.923 1.672-2.13 4.316-3.961 8.078-4.976 3.761-1.007 6.857-.716 9.372.288 2.511 1.006 4.53 2.704 6.035 4.538 1.797 2.096 3.18 4.746 4.097 7.751l2.833 10.55-10.551 2.832-2.833-10.547c-.561-2.091-1.478-3.414-2.964-4.354-.662-.385-1.685-.446-2.834-.14-1.987.537-2.533 2.25-2.695 3.747-.088.923.065 1.892.24 2.965l12.152 45.234c.694 2.168 1.71 3.459 3.065 4.325.666.384 1.478.501 2.419.248 2.403-.643 3.007-2.151 3.108-3.861.113-.815-.032-1.78-.338-2.929l-2.838-10.553 10.557-2.835z"/><path d="M168.148 298.616l-9.03-79.896 13.789-3.703 32.223 73.667-10.964 2.946-6.304-15.108-10.862 2.918 2.121 16.232-10.973 2.944zm5.199-56.95l-.847-1.903-.63.17.225 2.067 3.269 25.115 7.732-2.079-9.749-23.37z"/><path d="M229.071 282.254l-20.172-46.329-1.284-3.125-.626.17 13.834 51.499-10.449 2.808-20.628-76.78 13.791-3.708 16.117 33.306 1.617 3.935.208-.054-.57-4.218-2.741-36.896 13.787-3.705 20.625 76.782-10.443 2.806-13.832-51.5-.635.171.455 3.344 5.753 50.202-4.807 1.292z"/><path d="M240.344 196.899l11.278-3.028c4.911-1.318 10.158-1.387 14.871 1.149 4.718 2.547 8.794 7.723 11.151 16.498 2.362 8.779 1.396 15.192-1.412 19.761-2.805 4.564-7.321 7.343-12.235 8.663l8.251 30.709-11.281 3.031-20.623-76.783zm20.565 31.549c3.451-.927 5.478-2.145 6.25-4.254.809-2.009.365-4.91-.783-9.194-1.154-4.281-2.286-7.231-4.043-8.775-1.755-1.547-4.173-1.79-7.625-.863l6.201 23.086z"/></g></svg>