<svg width="512" height="512" xmlns="http://www.w3.org/2000/svg"><g class="svgGrid" stroke="#B35047"><line x1="32" x2="32" y2="512"/><line x1="64" x2="64" y2="512"/><line x1="96" x2="96" y2="512"/><line x1="128" x2="128" y2="512"/><line x1="160" x2="160" y2="512"/><line x1="192" x2="192" y2="512"/><line x1="224" x2="224" y2="512"/><line x1="256" x2="256" y2="512"/><line x1="288" x2="288" y2="512"/><line x1="320" x2="320" y2="512"/><line x1="352" x2="352" y2="512"/><line x1="384" x2="384" y2="512"/><line x1="416" x2="416" y2="512"/><line x1="448" x2="448" y2="512"/><line x1="480" x2="480" y2="512"/><line x2="512" y1="32" y2="32"/><line x2="512" y1="64" y2="64"/><line x2="512" y1="96" y2="96"/><line x2="512" y1="128" y2="128"/><line x2="512" y1="160" y2="160"/><line x2="512" y1="192" y2="192"/><line x2="512" y1="224" y2="224"/><line x2="512" y1="256" y2="256"/><line x2="512" y1="288" y2="288"/><line x2="512" y1="320" y2="320"/><line x2="512" y1="352" y2="352"/><line x2="512" y1="384" y2="384"/><line x2="512" y1="416" y2="416"/><line x2="512" y1="448" y2="448"/><line x2="512" y1="480" y2="480"/><rect width="512" height="512" fill="none"/></g><path d="M256 0c141.385 0 256 114.615 256 256 0 130.547-97.719 238.265-224 254.013v-190.013h88l8-64h-96v-32c0-17.673 14.327-32 32-32h64v-64h-64c-53.02 0-96 42.98-96 96v32h-48v64h48v190.013c-126.281-15.748-224-123.466-224-254.013 0-141.385 114.615-256 256-256z"/></svg>